<?xml version="1.0" encoding="utf-8"?>
<!-- Generator: Adobe Illustrator 23.0.3, SVG Export Plug-In . SVG Version: 6.00 Build 0)  -->
<svg version="1.1" id="Layer_1" xmlns:serif="http://www.serif.com/"
	 xmlns="http://www.w3.org/2000/svg" xmlns:xlink="http://www.w3.org/1999/xlink" x="0px" y="0px" viewBox="0 0 594.1 94.6"
	 style="enable-background:new 0 0 594.1 94.6;" xml:space="preserve">
<style type="text/css">
	.st0{fill:#1A2943;}
	.st1{fill-rule:evenodd;clip-rule:evenodd;fill:url(#SVGID_1_);}
</style>
<g>
	<g>
		<g>
			<path class="st0" d="M58.7,24.4l-2.4,5.2c-5.6-4.6-12.7-7.3-20.7-7.3c-20.7,0-35.6,15-35.6,36c0,21.1,14.8,36.2,35.6,36.2
				c7.9,0,14.9-2.6,20.5-7.1l2,4.8h18.1V24.4C76.1,24.4,58.7,24.4,58.7,24.4z M38.7,73.9c-8.8,0-15.2-6.6-15.2-15.5
				c0-8.8,6.4-15.4,15.2-15.4c8.8,0,15.2,6.6,15.2,15.4C53.9,67.3,47.4,73.9,38.7,73.9C38.7,73.9,38.7,73.9,38.7,73.9z"/>
			<path class="st0" d="M123.8,24.2c-8.1,0-13.9,2.3-18.7,7.9l-3.6-7.5H85.8v67.8h23.4V57.8c0-8.7,3.5-12.3,11.7-12.3h9.1V24.2
				L123.8,24.2L123.8,24.2z"/>
			<path class="st0" d="M173.7,22.4c-6.3,0-12,1.7-16.9,4.7V0h-23.1v92.3h17.3l2.2-5c5.5,4.6,12.5,7.3,20.5,7.3
				c20.9,0,35.6-15,35.6-36.1C209.4,37.4,194.6,22.4,173.7,22.4L173.7,22.4z M170.6,73.9c-8.8,0-15.2-6.6-15.2-15.4
				c0-8.9,6.4-15.5,15.2-15.5c8.8,0,15.2,6.6,15.2,15.5C185.8,67.2,179.3,73.9,170.6,73.9z"/>
			<path class="st0" d="M249.1,94.6c22,0,38-15.2,38-36.1c0-21-16-36.1-38-36.1c-22.1,0-38,15.1-38,36.1
				C211.1,79.4,227,94.6,249.1,94.6z M249.1,73.6c-8.5,0-14.6-6.2-14.6-15.1s6.1-15.1,14.6-15.1c8.5,0,14.6,6.2,14.6,15.2
				C263.8,67.4,257.7,73.6,249.1,73.6C249.1,73.6,249.1,73.6,249.1,73.6z"/>
			<path class="st0" d="M330.9,24.2c-8.1,0-13.9,2.3-18.7,7.9l-3.6-7.5h-15.7v67.8h23.4V57.8c0-8.7,3.5-12.3,11.7-12.3h9.1V24.2
				L330.9,24.2L330.9,24.2z"/>
			<path class="st0" d="M409.7,57.8c0-19.9-15.1-35.5-37-35.5c-21.3,0-36.8,15.3-36.8,36.1c0,20.7,15.7,36.2,36.8,36.2
				c17,0,30.7-9.7,35.5-25.2h-23.3c-2.2,4-6.8,6.4-12.3,6.4c-7.4,0-12.3-4-13.8-11.8h50.4C409.5,61.9,409.7,59.8,409.7,57.8
				L409.7,57.8L409.7,57.8z M372.7,40.6c7.1,0,11.9,3.7,14,10.4h-27.4C361.1,44.3,365.9,40.6,372.7,40.6L372.7,40.6z"/>
			<path class="st0" d="M447.9,94.6c20,0,33.4-12.4,33.4-31.3V24.5h-23.4v37.7c0,7.1-3.8,11.4-10,11.4c-6.2,0-10.1-4.2-10.1-11.4
				V24.5h-23.4v38.7C414.4,82.2,427.8,94.6,447.9,94.6L447.9,94.6L447.9,94.6z"/>
			<path class="st0" d="M569.9,22.5c-8.4,0-16,3.9-20.8,10c-4.2-6.3-11.2-10-19.5-10c-7.8,0-14.9,3.6-19.8,9.3l-3.3-7.3H490v67.8
				h23.4V55.1c0-8.4,3.5-13,9.8-13c4.9,0,7.5,3.6,7.5,10.5v39.7h22.8V55.1c0-8.5,3.3-13,9.7-13c5,0,7.6,3.4,7.6,10.5v39.7h23.4V49.8
				C594.1,33.8,584.4,22.5,569.9,22.5L569.9,22.5L569.9,22.5z"/>
		</g>
	</g>
	
		<linearGradient id="SVGID_1_" gradientUnits="userSpaceOnUse" x1="3.349260e-06" y1="468.3564" x2="1" y2="468.3564" gradientTransform="matrix(240.258 -1.010204e-02 -1.010204e-02 -240.258 28.2382 112584.7734)">
		<stop  offset="0" style="stop-color:#ED135A"/>
		<stop  offset="0.26" style="stop-color:#AC386A"/>
		<stop  offset="0.55" style="stop-color:#009893"/>
		<stop  offset="0.76" style="stop-color:#58B656"/>
		<stop  offset="1" style="stop-color:#72BF44"/>
	</linearGradient>
	<path class="st1" d="M233.7,55.7c1.3-7.4,7.7-13,15.5-13c8.7,0,15.7,7,15.7,15.7s-7,15.7-15.7,15.7c-7.8,0-14.2-5.6-15.5-13h-47.5
		c-1.3,7.4-7.7,13-15.5,13c-7.8,0-14.2-5.6-15.5-13h-101c-1.3,7.4-7.7,13-15.5,13c-8.7,0-15.7-7-15.7-15.7s7-15.7,15.7-15.7
		c7.8,0,14.2,5.6,15.5,13h101c1.3-7.4,7.7-13,15.5-13c7.8,0,14.2,5.6,15.5,13C186.1,55.7,233.7,55.7,233.7,55.7z"/>
</g>
</svg>
