<?xml version="1.0" encoding="utf-8"?>
<!-- Generator: Adobe Illustrator 24.1.2, SVG Export Plug-In . SVG Version: 6.00 Build 0)  -->
<svg version="1.1" id="Layer_1" xmlns="http://www.w3.org/2000/svg" xmlns:xlink="http://www.w3.org/1999/xlink" x="0px" y="0px"
	 viewBox="0 0 164 62" style="enable-background:new 0 0 164 62;" xml:space="preserve">
<style type="text/css">
	.st0{fill:none;stroke:#000000;stroke-miterlimit:10;}
	.st1{fill:url(#SVGID_1_);}
	.st2{fill:url(#SVGID_2_);}
</style>
<path class="st0" d="M1640.3-211.8v-182c0-37.5-15.9-73.3-43.8-98.4l-35.7-32.1"/>
<path class="st0" d="M1662.8-169.3v-412.8c0-27.1-10.2-53.3-28.7-73.2l-120.3-130"/>
<circle class="st0" cx="1560.3" cy="-523.8" r="18"/>
<circle class="st0" cx="1513.8" cy="-785.3" r="31"/>
<g>
	
		<linearGradient id="SVGID_1_" gradientUnits="userSpaceOnUse" x1="0" y1="30.89" x2="164.1" y2="30.89" gradientTransform="matrix(1 0 0 -1 0 61.89)">
		<stop  offset="0" style="stop-color:#EC145A"/>
		<stop  offset="0.2568" style="stop-color:#BB5E6B"/>
		<stop  offset="0.5476" style="stop-color:#009792"/>
		<stop  offset="0.7636" style="stop-color:#55B259"/>
		<stop  offset="1" style="stop-color:#73BE44"/>
	</linearGradient>
	<path class="st1" d="M143.8,21.5c-10.3,0-18.8,7.8-20.1,17.8h-3.3c-5,0-9.1-4.1-9.1-9.1V19.5c0-5.7-4.6-10.3-10.3-10.3h-4.2
		c-0.9-5-5.3-8.8-10.6-8.8c-5.9,0-10.8,4.8-10.8,10.8S80.3,22,86.3,22c4.9,0,9-3.3,10.3-7.8h4.4c2.9,0,5.3,2.4,5.3,5.3v10.6
		c0,3.5,1.3,6.7,3.4,9.1H78.8c-1-7.2-7.1-12.8-14.6-12.8S50.6,32,49.6,39.2h-4.3c-5,0-9.1-4.1-9.1-9.1V19.5
		c0-5.7-4.6-10.3-10.3-10.3h-3.7C21.4,4,16.8,0,11.3,0C5,0,0,5,0,11.3s5,11.3,11.3,11.3c5.2,0,9.5-3.5,10.8-8.3H26
		c2.9,0,5.3,2.4,5.3,5.3v10.6c0,3.5,1.3,6.7,3.4,9.1H21.3c-0.8-4.7-4.9-8.3-9.8-8.3c-5.5,0-10,4.5-10,10s4.5,10,10,10
		c4.4,0,8.1-2.8,9.4-6.8h24.4h4.4C51.2,50.9,57.1,56,64.3,56s13.1-5.1,14.4-11.8h41.7h3.3c1.2,10,9.8,17.8,20.1,17.8
		c11.2,0,20.3-9.1,20.3-20.3S154.9,21.5,143.8,21.5z M86.3,17c-3.2,0-5.8-2.6-5.8-5.8s2.6-5.8,5.8-5.8S92,8.1,92,11.3
		S89.4,17,86.3,17z M11.3,17.5c-3.4,0-6.3-2.8-6.3-6.3S7.8,5,11.3,5s6.3,2.8,6.3,6.3S14.7,17.5,11.3,17.5z M11.5,46
		c-2.8,0-5-2.2-5-5s2.2-5,5-5s5,2.2,5,5S14.3,46,11.5,46z M64.3,51c-5.4,0-9.8-4.4-9.8-9.8s4.4-9.8,9.8-9.8s9.8,4.4,9.8,9.8
		S69.6,51,64.3,51z M143.8,57c-8.4,0-15.3-6.8-15.3-15.3s6.8-15.3,15.3-15.3S159,33.3,159,41.8S152.2,57,143.8,57z"/>
	
		<linearGradient id="SVGID_2_" gradientUnits="userSpaceOnUse" x1="132.5" y1="20.09" x2="155" y2="20.09" gradientTransform="matrix(1 0 0 -1 0 61.89)">
		<stop  offset="0" style="stop-color:#55B259"/>
		<stop  offset="1" style="stop-color:#73BE44"/>
	</linearGradient>
	<circle class="st2" cx="143.8" cy="41.8" r="11.3"/>
</g>
</svg>
