<svg width="91" height="79" viewBox="0 0 91 79" fill="none" xmlns="http://www.w3.org/2000/svg">
<rect x="4" y="24" width="16" height="4" fill="#2054D2"/>
<rect x="4" y="20" width="16" height="4" fill="#2054D2"/>
<rect y="28" width="20" height="4" fill="#2054D2"/>
<rect y="32" width="20" height="4" fill="#2054D2"/>
<rect x="8" y="16" width="12" height="4" fill="#2054D2"/>
<rect x="8" y="12" width="12" height="4" fill="#2054D2"/>
<rect x="12" y="8" width="8" height="4" fill="#2054D2"/>
<rect x="12" y="4" width="8" height="4" fill="#2054D2"/>
<rect x="16" width="4" height="4" fill="#2054D2"/>
<rect x="36" y="40" width="16" height="4" transform="rotate(-180 36 40)" fill="#2054D2"/>
<rect x="36" y="44" width="16" height="4" transform="rotate(-180 36 44)" fill="#2054D2"/>
<rect x="40" y="36" width="20" height="4" transform="rotate(-180 40 36)" fill="#2054D2"/>
<rect x="40" y="32" width="20" height="4" transform="rotate(-180 40 32)" fill="#2054D2"/>
<rect x="32" y="48" width="12" height="4" transform="rotate(-180 32 48)" fill="#2054D2"/>
<rect x="32" y="52" width="12" height="4" transform="rotate(-180 32 52)" fill="#2054D2"/>
<rect x="28" y="56" width="8" height="4" transform="rotate(-180 28 56)" fill="#2054D2"/>
<rect x="28" y="60" width="8" height="4" transform="rotate(-180 28 60)" fill="#2054D2"/>
<rect x="24" y="64" width="4" height="4" transform="rotate(-180 24 64)" fill="#2054D2"/>
<rect x="55" y="39" width="16" height="4" fill="#2054D2"/>
<rect x="55" y="35" width="16" height="4" fill="#2054D2"/>
<rect x="51" y="43" width="20" height="4" fill="#2054D2"/>
<rect x="51" y="47" width="20" height="4" fill="#2054D2"/>
<rect x="59" y="31" width="12" height="4" fill="#2054D2"/>
<rect x="59" y="27" width="12" height="4" fill="#2054D2"/>
<rect x="63" y="23" width="8" height="4" fill="#2054D2"/>
<rect x="63" y="19" width="8" height="4" fill="#2054D2"/>
<rect x="67" y="15" width="4" height="4" fill="#2054D2"/>
<rect x="87" y="55" width="16" height="4" transform="rotate(-180 87 55)" fill="#2054D2"/>
<rect x="87" y="59" width="16" height="4" transform="rotate(-180 87 59)" fill="#2054D2"/>
<rect x="91" y="51" width="20" height="4" transform="rotate(-180 91 51)" fill="#2054D2"/>
<rect x="91" y="47" width="20" height="4" transform="rotate(-180 91 47)" fill="#2054D2"/>
<rect x="83" y="63" width="12" height="4" transform="rotate(-180 83 63)" fill="#2054D2"/>
<rect x="83" y="67" width="12" height="4" transform="rotate(-180 83 67)" fill="#2054D2"/>
<rect x="79" y="71" width="8" height="4" transform="rotate(-180 79 71)" fill="#2054D2"/>
<rect x="79" y="75" width="8" height="4" transform="rotate(-180 79 75)" fill="#2054D2"/>
<rect x="75" y="79" width="4" height="4" transform="rotate(-180 75 79)" fill="#2054D2"/>
</svg>
