<?xml version="1.0" encoding="utf-8"?>
<!-- Generator: Adobe Illustrator 24.1.2, SVG Export Plug-In . SVG Version: 6.00 Build 0)  -->
<svg version="1.1" id="Layer_1" xmlns="http://www.w3.org/2000/svg" xmlns:xlink="http://www.w3.org/1999/xlink" x="0px" y="0px"
	 viewBox="0 0 71 71" style="enable-background:new 0 0 71 71;" xml:space="preserve">
<style type="text/css">
	.st0{fill:#FBE3E6;stroke:#233659;stroke-width:1.5;stroke-linecap:round;stroke-linejoin:round;}
	
		.st1{fill-rule:evenodd;clip-rule:evenodd;fill:#F9F9F9;stroke:#233659;stroke-width:1.5;stroke-linecap:round;stroke-linejoin:round;}
	.st2{fill:none;stroke:#F22F46;stroke-width:1.5;stroke-linecap:round;stroke-linejoin:round;}
	.st3{fill:none;stroke:#233659;stroke-width:1.5;stroke-linecap:round;stroke-linejoin:round;}
</style>
<g>
	<path class="st0" d="M44.3,62.4L36,68.1l-8.3-5.7c-10.2-7.1-16.2-18.6-16.2-31.1V15.3H12c9.5-1.2,18.1-5.9,24.2-13.1
		c6,7.2,14.7,11.9,24.2,13.1h0.5v16.1C60.7,43.8,54.5,55.4,44.3,62.4z"/>
	<path class="st1" d="M26.5,47.4h19V32.2h-19C26.5,32.2,26.5,47.4,26.5,47.4z"/>
	<path class="st2" d="M40,56.2L36,59l-4-2.8 M47.4,21h5.7v5.7 M18.9,26.7V21h5.7"/>
	<path class="st3" d="M34.1,39.8h3.8 M36,21c3.1,0,5.7,2.6,5.7,5.7v5.5H30.3v-5.5C30.3,23.4,32.9,21,36,21L36,21z"/>
</g>
</svg>
