<?xml version="1.0" encoding="utf-8"?>
<!-- Generator: Adobe Illustrator 24.1.2, SVG Export Plug-In . SVG Version: 6.00 Build 0)  -->
<svg version="1.1" id="Layer_1" xmlns="http://www.w3.org/2000/svg" xmlns:xlink="http://www.w3.org/1999/xlink" x="0px" y="0px"
	 viewBox="0 0 72 72" style="enable-background:new 0 0 72 72;" xml:space="preserve">
<style type="text/css">
	.st0{fill-rule:evenodd;clip-rule:evenodd;fill:#FFFFFF;stroke:#233659;stroke-width:2;}
	
		.st1{fill-rule:evenodd;clip-rule:evenodd;fill:#FFFFFF;stroke:#233659;stroke-width:2;stroke-linecap:round;stroke-linejoin:round;}
	
		.st2{fill-rule:evenodd;clip-rule:evenodd;fill:#FBE3E6;stroke:#233659;stroke-width:2;stroke-linecap:round;stroke-linejoin:round;}
	.st3{fill:#F22F46;}
</style>
<circle class="st0" cx="30.9" cy="36" r="29.9"/>
<g>
	<path class="st1" d="M71,52L58.9,64.4L46.7,52"/>
	<path class="st2" d="M52.8,8.7v35.4h-6.1l12.2,12.8L71,44.1h-6.1V8.7H52.8z"/>
</g>
<g>
	<g>
		<path class="st3" d="M37.2,29c-0.1-0.2-0.4-0.4-0.8-0.6c-0.4-0.2-0.8-0.5-1.3-0.7c-0.5-0.2-1.1-0.5-1.7-0.6
			c-0.6-0.2-1.2-0.3-1.9-0.4v5.9l0.9,0.2c1.2,0.3,2.2,0.7,3.2,1c1,0.4,1.8,0.8,2.4,1.4c0.7,0.5,1.2,1.2,1.5,2
			c0.4,0.8,0.5,1.7,0.5,2.8c0,1.2-0.2,2.3-0.7,3.2c-0.4,0.9-1,1.6-1.8,2.2c-0.8,0.6-1.6,1-2.7,1.3c-1,0.3-2.1,0.4-3.2,0.5v3.7h-2
			v-3.8c-1.6-0.1-3.1-0.4-4.6-1c-1.5-0.5-2.9-1.2-4.1-2.1l2.1-4c0.2,0.2,0.5,0.4,0.9,0.7c0.4,0.3,1,0.6,1.6,0.9
			c0.6,0.3,1.3,0.5,2.1,0.8c0.8,0.3,1.5,0.4,2.4,0.5V37c-0.2,0-0.4-0.1-0.6-0.2c-0.2-0.1-0.4-0.1-0.6-0.2c-1.2-0.3-2.2-0.7-3-1
			c-0.9-0.4-1.6-0.8-2.1-1.3c-0.6-0.5-1-1.1-1.3-1.8c-0.3-0.7-0.4-1.5-0.4-2.4c0-1.1,0.2-2.1,0.6-3c0.4-0.9,0.9-1.7,1.6-2.3
			c0.7-0.6,1.5-1.1,2.5-1.5c1-0.4,2-0.6,3.1-0.7v-3.5h2v3.4c1.5,0.1,2.9,0.4,4.1,0.9c1.3,0.5,2.4,1.1,3.3,1.7L37.2,29z M26.9,29.4
			c0,0.8,0.3,1.4,0.8,1.8c0.5,0.4,1.3,0.8,2.4,1.1v-5.5C28,26.8,26.9,27.7,26.9,29.4z M35.2,40.4c0-0.8-0.3-1.4-1-1.8
			c-0.6-0.4-1.5-0.8-2.7-1.2v5.5C34,42.9,35.2,42,35.2,40.4z"/>
	</g>
	<rect x="29.3" y="19.2" class="st3" width="2.7" height="31.7"/>
</g>
</svg>
