<?xml version="1.0" encoding="utf-8"?>
<!-- Generator: Adobe Illustrator 24.1.2, SVG Export Plug-In . SVG Version: 6.00 Build 0)  -->
<svg version="1.1" id="Layer_1" xmlns="http://www.w3.org/2000/svg" xmlns:xlink="http://www.w3.org/1999/xlink" x="0px" y="0px"
	 viewBox="0 0 71 71" style="enable-background:new 0 0 71 71;" xml:space="preserve">
<style type="text/css">
	.st0{fill:none;stroke:#233659;stroke-width:1.5;stroke-linecap:round;stroke-linejoin:round;}
	.st1{fill:#FFFFFF;stroke:#233659;stroke-width:2;stroke-linecap:round;stroke-linejoin:round;}
	.st2{fill:#F22F46;}
	.st3{fill:#FBE3E6;stroke:#233659;stroke-width:1.5;stroke-linecap:round;stroke-linejoin:round;}
	.st4{fill:none;stroke:#233659;stroke-width:2;stroke-linecap:round;stroke-linejoin:round;}
	.st5{fill:#F22F46;stroke:#FFFFFF;stroke-width:2;stroke-miterlimit:10;}
</style>
<g>
	<line class="st0" x1="142.3" y1="13.9" x2="142.3" y2="-17.2"/>
	<line class="st0" x1="142.2" y1="13.6" x2="169.1" y2="29.2"/>
	<line class="st0" x1="115.3" y1="29.2" x2="142.3" y2="13.6"/>
	<circle class="st1" cx="142.1" cy="11.9" r="15.2"/>
	<g>
		<g>
			<path class="st2" d="M147.1,7.4c-0.2-0.2-0.4-0.2-0.5-0.4c-0.4-0.2-0.5-0.4-1.1-0.5c-0.4-0.2-0.9-0.4-1.2-0.5
				c-0.5-0.2-0.9-0.2-1.4-0.4v4.5l0.7,0.2c0.9,0.2,1.8,0.5,2.5,0.7c0.7,0.4,1.4,0.5,1.8,1.1c0.5,0.4,0.9,0.9,1.2,1.4
				c0.4,0.5,0.4,1.2,0.4,2.1c0,0.9-0.2,1.8-0.5,2.5c-0.4,0.7-0.7,1.2-1.4,1.6c-0.5,0.4-1.2,0.7-2,0.9c-0.7,0.2-1.6,0.4-2.3,0.4v2.9
				h-1.6V21c-1.2,0-2.3-0.4-3.6-0.7c-1.1-0.4-2.1-0.9-3-1.6l1.6-3c0.2,0.2,0.4,0.4,0.7,0.5s0.7,0.4,1.2,0.7c0.5,0.2,1.1,0.4,1.6,0.5
				c0.5,0.2,1.2,0.4,1.8,0.4v-4.5c-0.2,0-0.4,0-0.5-0.2c-0.2,0-0.4-0.2-0.5-0.2c-0.9-0.2-1.6-0.5-2.3-0.7c-0.7-0.4-1.2-0.5-1.6-1.1
				c-0.4-0.4-0.7-0.9-0.9-1.2c-0.2-0.5-0.4-1.1-0.4-1.8c0-0.9,0.2-1.6,0.5-2.3c0.4-0.7,0.7-1.2,1.2-1.8c0.5-0.5,1.1-0.9,1.8-1.1
				s1.4-0.4,2.3-0.5v-2.7h1.6v2.7c1.1,0,2.1,0.4,3.2,0.7c0.9,0.4,1.8,0.9,2.5,1.2L147.1,7.4z M139.3,7.6c0,0.5,0.2,1.1,0.5,1.2
				c0.4,0.4,1.1,0.5,1.8,0.9V5.6C140.2,5.6,139.3,6.3,139.3,7.6z M145.5,15.9c0-0.5-0.2-1.1-0.7-1.4c-0.5-0.4-1.1-0.7-2-0.9v4.1
				C144.6,17.7,145.5,17.2,145.5,15.9z"/>
		</g>
		<rect x="141.3" y="-0.3" class="st2" width="2" height="24.1"/>
	</g>
	<circle class="st3" cx="168.7" cy="29" r="7.4"/>
	<rect x="110.2" y="23.4" class="st3" width="11" height="11"/>
	<polygon class="st3" points="142.2,-20.7 142.2,-20.7 134.3,-9.6 150.1,-9.6 	"/>
</g>
<g>
	<line class="st4" x1="35.8" y1="13.2" x2="35.8" y2="57.8"/>
	<polyline class="st4" points="36.7,5.2 9.9,20.1 9.9,50.5 26.8,60.4 	"/>
	<polyline class="st4" points="35.3,65.8 62.1,50.9 62.1,20.5 45.2,10.6 	"/>
	<line class="st4" x1="9.9" y1="50.5" x2="62.1" y2="20.5"/>
	<line class="st4" x1="53.2" y1="45.7" x2="18.8" y2="25.3"/>
	<circle class="st3" cx="9.9" cy="50.5" r="7.3"/>
	<rect x="4.5" y="14.6" class="st3" width="10.9" height="10.9"/>
	<polygon class="st3" points="62.1,43.6 55.6,54.8 68.5,54.8 	"/>
	<polygon class="st3" points="46.3,4.6 39.3,9.6 42,17.8 50.6,17.8 53.2,9.6 	"/>
	<polygon class="st5" points="41.4,38.3 41.4,31.8 35.8,28.6 30.3,31.8 30.3,38.3 35.8,41.5 	"/>
</g>
</svg>
